<?xml version="1.0" standalone="no"?><!DOCTYPE svg PUBLIC "-//W3C//DTD SVG 1.1//EN" "http://www.w3.org/Graphics/SVG/1.1/DTD/svg11.dtd"><svg class="icon" width="200px" height="200.00px" viewBox="0 0 1024 1024" version="1.1" xmlns="http://www.w3.org/2000/svg"><path d="M512 56.888889c57.457778 0 114.801778 12.174222 171.804444 36.295111 25.201778 10.695111 42.325333 34.247111 44.942223 61.098667l0.398222 7.395555-0.056889 133.176889h133.233778c29.866667 0 56.832 17.863111 68.494222 45.340445C954.936889 397.198222 967.111111 454.542222 967.111111 512c0 57.457778-12.174222 114.801778-36.295111 171.804444a74.353778 74.353778 0 0 1-61.098667 44.942223l-7.395555 0.398222-133.233778-0.056889 0.056889 133.233778c0 29.866667-17.863111 56.832-45.340445 68.494222-57.002667 24.120889-114.346667 36.295111-171.804444 36.295111-57.457778 0-114.801778-12.174222-171.804444-36.295111a74.353778 74.353778 0 0 1-44.942223-61.098667l-0.398222-7.395555v-133.233778l-133.176889 0.056889c-29.866667 0-56.832-17.863111-68.494222-45.340445C69.063111 626.801778 56.888889 569.457778 56.888889 512c0-57.457778 12.174222-114.801778 36.295111-171.804444a74.353778 74.353778 0 0 1 61.098667-44.942223l7.395555-0.398222h133.176889V161.678222c0-29.866667 17.863111-56.832 45.340445-68.494222C397.198222 69.063111 454.542222 56.888889 512 56.888889z m350.321778 291.498667h-133.233778L729.144889 512c0 14.791111-11.946667 26.737778-26.737778 26.737778l-2.503111-0.056889-2.56-0.341333-4.835556 0.455111H348.444444v323.527111c0 8.362667 4.949333 15.928889 12.629334 19.171555 50.574222 21.447111 100.807111 32.085333 150.926222 32.085334 50.062222 0 100.352-10.638222 150.926222-32.085334a20.821333 20.821333 0 0 0 12.288-15.075555l0.398222-4.096-0.056888-133.233778L512 729.144889a26.737778 26.737778 0 0 1-4.835556-53.134222L512 675.612444h350.321778c8.362667 0 15.928889-5.006222 19.171555-12.686222 21.447111-50.574222 32.085333-100.807111 32.085334-150.926222 0-50.062222-10.638222-100.352-32.085334-150.926222a20.821333 20.821333 0 0 0-15.075555-12.288l-4.096-0.398222z m-275.911111 398.620444a47.616 47.616 0 1 1 0 95.175111 47.616 47.616 0 0 1 0-95.175111zM512 110.364444c-50.062222 0-100.352 10.638222-150.926222 32.085334a20.821333 20.821333 0 0 0-12.288 15.075555l-0.398222 4.096v133.176889H512a26.737778 26.737778 0 0 1 4.835556 53.134222L512 348.387556H161.678222a20.821333 20.821333 0 0 0-19.171555 12.686222C121.059556 411.648 110.364444 461.937778 110.364444 512c0 50.062222 10.638222 100.352 32.085334 150.926222a20.821333 20.821333 0 0 0 15.075555 12.288l4.096 0.398222 133.176889-0.056888V512c0-14.791111 11.946667-26.737778 26.737778-26.737778l1.308444 0.056889 1.251556-0.113778h351.459556l-0.056889-155.534222a26.737778 26.737778 0 0 1 0-16.042667V161.678222a20.821333 20.821333 0 0 0-12.629334-19.171555C612.352 121.059556 562.062222 110.364444 512 110.364444z m-86.243556 65.422223a47.616 47.616 0 1 1 0 95.232 47.616 47.616 0 0 1 0-95.175111z" fill="#8a8a8a" /></svg>